#N canvas 598 57 460 654 10;
#X declare -lib mrpeach;
#X obj 10 -1 import mrpeach;
#X obj 12 449 udpsend;
#X obj 332 42 unpackOSC;
#X obj 332 77 print;
#X msg 9 53 disconnect;
#X obj 42 405 packOSC;
#X msg 65 378 send /modipulate/quit;
#X msg 62 328 send /modipulate/song/unload;
#X msg 37 160 send /modipulate/song/load \$1;
#X obj 37 137 openpanel;
#X msg 61 272 send /modipulate/transport/play;
#X obj 36 114 bng 15 250 50 0 empty empty empty 17 7 0 10 -262144 -1
-1;
#X text 61 110 Load a song to play;
#X text 61 249 Play the song;
#X text 71 358 Quit the OSC process;
#X text 71 308 Unload the song;
#X msg 51 213 send /modipulate/song/info;
#X text 50 190 Print info about the song;
#X msg 20 82 send /ping 8009;
#X obj 332 7 udpreceive 7071;
#X msg 7 29 connect localhost 7070;
#X connect 2 0 3 0;
#X connect 4 0 1 0;
#X connect 5 0 1 0;
#X connect 6 0 5 0;
#X connect 7 0 5 0;
#X connect 8 0 5 0;
#X connect 9 0 8 0;
#X connect 10 0 5 0;
#X connect 11 0 9 0;
#X connect 16 0 5 0;
#X connect 18 0 5 0;
#X connect 19 0 2 0;
#X connect 20 0 1 0;
